#!OML:ASF H:\LiuWeirdWalks\Patient Classification 1\Patient 1\Session 1\male.ASF
:FULLY-SPECIFIED
:DEGREES
115
root 1.29967 16.4858 4.19147 -6.93445 0.244095 -1.02203
lowerback 8.77504 0.167751 -0.674465
upperback 2.30542 0.230541 2.21911
thorax -2.54178 0.118215 2.65116
lowerneck -23.0031 1.67005 4.47837
upperneck 20.0522 2.43057 -6.60859
head 10.3556 0.645817 -2.73314
rclavicle 2.52208e-015 -1.78906e-014
rhumerus 25.8094 -2.57553 -40.2432
rradius 70.3265
rwrist 1.7844
rhand 13.0561 -2.3123
rfingers 7.12502
rthumb 38.0188 -28.1064
lclavicle 2.52208e-015 -1.78906e-014
lhumerus 19.5303 8.93387 54.067
lradius 70.756
lwrist -13.8883
lhand 13.4788 -2.59273
lfingers 7.12502
lthumb 38.4179 23.0916
rfemur -13.7563 -9.3448 15.2496
rtibia 59.6346
rfoot -27.427 -16.8007
rtoes -12.385
lfemur -13.1175 11.0069 -12.0714
ltibia 56.4479
lfoot -25.2436 13.9396
ltoes -13.3669
116
root 1.29952 16.4858 4.19135 -6.93488 0.23803 -1.03499
lowerback 8.77744 0.167386 -0.672133
upperback 2.29845 0.230526 2.22396
thorax -2.55033 0.118326 2.65492
lowerneck -22.9902 1.67529 4.48534
upperneck 20.0676 2.43798 -6.61361
head 10.3595 0.649271 -2.7352
rclavicle -3.46631e-015 0
rhumerus 25.7999 -2.56898 -40.244
rradius 70.3243
rwrist 1.7798
rhand 13.043 -2.31982
rfingers 7.12502
rthumb 38.0065 -28.1173
lclavicle -3.46631e-015 0
lhumerus 19.5252 8.94406 54.0672
lradius 70.7422
lwrist -13.9134
lhand 13.4366 -2.62133
lfingers 7.12502
lthumb 38.3781 23.074
rfemur -13.7551 -9.34409 15.2653
rtibia 59.6294
rfoot -27.4282 -16.798
rtoes -12.387
lfemur -13.1163 11.0121 -12.0543
ltibia 56.4477
lfoot -25.2422 13.9386
ltoes -13.3694
117
root 1.29936 16.4859 4.19117 -6.93472 0.230694 -1.04725
lowerback 8.77716 0.168072 -0.669485
upperback 2.29233 0.231896 2.22827
thorax -2.55659 0.1191 2.65778
lowerneck -22.9855 1.68083 4.49455
upperneck 20.079 2.44505 -6.6207
head 10.3635 0.652373 -2.73841
rclavicle -2.36057e-016 9.54166e-015
rhumerus 25.7917 -2.56673 -40.2483
rradius 70.3188
rwrist 1.78207
rhand 13.0219 -2.31423
rfingers 7.12502
rthumb 37.9865 -28.1171
lclavicle -2.36057e-016 9.54166e-015
lhumerus 19.5196 8.95194 54.0663
lradius 70.7296
lwrist -13.932
lhand 13.446 -2.59564
lfingers 7.12502
lthumb 38.3869 23.0973
rfemur -13.7548 -9.34192 15.2809
rtibia 59.624
rfoot -27.4285 -16.7959
rtoes -12.3877
lfemur -13.1158 11.0192 -12.0376
ltibia 56.4472
lfoot -25.2408 13.9377
ltoes -13.3758
118
root 1.29918 16.486 4.19095 -6.93434 0.223805 -1.05943
lowerback 8.77732 0.16921 -0.667083
upperback 2.2856 0.233852 2.23239
thorax -2.56376 0.12018 2.6605
lowerneck -22.982 1.68474 4.5044
upperneck 20.0906 2.44934 -6.62675
head 10.3675 0.654362 -2.74179
rclavicle -3.86388e-015 -1.03368e-014
rhumerus 25.7833 -2.5662 -40.253
rradius 70.3097
rwrist 1.79014
rhand 12.9971 -2.30029
rfingers 7.12502
rthumb 37.9631 -28.1095
lclavicle -3.86388e-015 -1.03368e-014
lhumerus 19.5148 8.95879 54.0675
lradius 70.7188
lwrist -13.9409
lhand 13.4995 -2.52844
lfingers 7.12502
lthumb 38.4374 23.1504
rfemur -13.7552 -9.33986 15.2964
rtibia 59.619
rfoot -27.4287 -16.7925
rtoes -12.386
lfemur -13.1146 11.0257 -12.0213
ltibia 56.4462
lfoot -25.2409 13.9356
ltoes -13.3783
119
root 1.299 16.4864 4.19071 -6.93377 0.219055 -1.06586
lowerback 8.77705 0.170609 -0.670532
upperback 2.28 0.23557 2.23501
thorax -2.56951 0.121144 2.665
lowerneck -22.9778 1.68576 4.50833
upperneck 20.1002 2.44983 -6.62593
head 10.3703 0.655012 -2.74224
rclavicle 1.19271e-015 -1.27222e-014
rhumerus 25.7783 -2.56925 -40.2576
rradius 70.2993
rwrist 1.79453
rhand 12.9768 -2.28379
rfingers 7.12502
rthumb 37.944 -28.0982
lclavicle 1.19271e-015 -1.27222e-014
lhumerus 19.5108 8.96521 54.0684
lradius 70.71
lwrist -13.9391
lhand 13.5767 -2.43931
lfingers 7.12502
lthumb 38.5103 23.2192
rfemur -13.7557 -9.34118 15.3046
rtibia 59.6144
rfoot -27.428 -16.7874
rtoes -12.3859
lfemur -13.1134 11.0292 -12.0127
ltibia 56.4434
lfoot -25.2395 13.935
ltoes -13.3809
120
root 1.29887 16.4868 4.19044 -6.93317 0.21597 -1.06694
lowerback 8.77655 0.170779 -0.679109
upperback 2.27658 0.235104 2.23569
thorax -2.57278 0.121003 2.67061
lowerneck -22.9865 1.68426 4.50301
upperneck 20.1232 2.44744 -6.61404
head 10.3798 0.654681 -2.7379
rclavicle -2.79541e-015 -7.55382e-015
rhumerus 25.7781 -2.57345 -40.2627
rradius 70.2896
rwrist 1.79238
rhand 12.9612 -2.2691
rfingers 7.12502
rthumb 37.9292 -28.0876
lclavicle -2.79541e-015 -7.55382e-015
lhumerus 19.5097 8.97593 54.0668
lradius 70.7039
lwrist -13.9337
lhand 13.6442 -2.36101
lfingers 7.12502
lthumb 38.574 23.2797
rfemur -13.7564 -9.34569 15.3053
rtibia 59.6107
rfoot -27.4253 -16.7798
rtoes -12.3851
lfemur -13.1109 11.0299 -12.0112
ltibia 56.4387
lfoot -25.2387 13.9347
ltoes -13.3801
121
root 1.29877 16.4873 4.19016 -6.93251 0.215263 -1.06307
lowerback 8.77434 0.170601 -0.692259
upperback 2.27531 0.233679 2.23483
thorax -2.57284 0.120358 2.67731
lowerneck -22.9913 1.68164 4.49558
upperneck 20.1413 2.44339 -6.59932
head 10.3866 0.653864 -2.73233
rclavicle -3.14328e-015 -3.57812e-015
rhumerus 25.7814 -2.58044 -40.267
rradius 70.2807
rwrist 1.78902
rhand 12.95 -2.25438
rfingers 7.12502
rthumb 37.9186 -28.0757
lclavicle -3.14328e-015 -3.57812e-015
lhumerus 19.5153 8.98772 54.0648
lradius 70.6977
lwrist -13.9299
lhand 13.6741 -2.31699
lfingers 7.12502
lthumb 38.6021 23.3158
rfemur -13.7567 -9.35054 15.2998
rtibia 59.6072
rfoot -27.423 -16.7701
rtoes -12.3816
lfemur -13.1091 11.028 -12.0164
ltibia 56.4318
lfoot -25.2347 13.9342
ltoes -13.3759
122
root 1.29873 16.4879 4.18989 -6.93235 0.217094 -1.0529
lowerback 8.7703 0.170155 -0.710459
upperback 2.278 0.231325 2.23207
thorax -2.56774 0.119193 2.68497
lowerneck -23.0008 1.67552 4.48081
upperneck 20.157 2.43507 -6.57807
head 10.393 0.651252 -2.7238
rclavicle 2.23633e-015 -1.19271e-014
rhumerus 25.7891 -2.59186 -40.2695
rradius 70.274
rwrist 1.78449
rhand 12.9456 -2.24489
rfingers 7.12502
rthumb 37.9145 -28.0673
lclavicle 2.23633e-015 -1.19271e-014
lhumerus 19.5298 9.00336 54.0642
lradius 70.6902
lwrist -13.9358
lhand 13.6847 -2.30003
lfingers 7.12502
lthumb 38.6122 23.33
rfemur -13.7565 -9.35575 15.2863
rtibia 59.6044
rfoot -27.4206 -16.7595
rtoes -12.3787
lfemur -13.1063 11.0231 -12.0294
ltibia 56.4229
lfoot -25.2301 13.9328
ltoes -13.3696
123
root 1.29874 16.4884 4.18961 -6.93288 0.218575 -1.04207
lowerback 8.76413 0.169516 -0.72766
upperback 2.28329 0.228732 2.22856
thorax -2.55875 0.117848 2.69128
lowerneck -23.0155 1.66731 4.46296
upperneck 20.1762 2.42429 -6.55452
head 10.4013 0.647452 -2.71441
rclavicle -6.83322e-016 -1.74931e-014
rhumerus 25.7992 -2.60574 -40.2722
rradius 70.27
rwrist 1.78903
rhand 12.9432 -2.23752
rfingers 7.12502
rthumb 37.9122 -28.0606
lclavicle -6.83322e-016 -1.74931e-014
lhumerus 19.5496 9.02059 54.0624
lradius 70.682
lwrist -13.9485
lhand 13.7065 -2.28151
lfingers 7.12502
lthumb 38.6328 23.3427
rfemur -13.7553 -9.36114 15.2717
rtibia 59.6012
rfoot -27.4179 -16.7494
rtoes -12.3753
lfemur -13.1037 11.0174 -12.0433
ltibia 56.4132
lfoot -25.2234 13.9324
ltoes -13.3675
124
root 1.29883 16.4889 4.18925 -6.93346 0.220525 -1.02911
lowerback 8.75997 0.168741 -0.746213
upperback 2.28836 0.225852 2.22501
thorax -2.55109 0.116378 2.69836
lowerneck -23.0266 1.65857 4.44533
upperneck 20.1887 2.41322 -6.53383
head 10.4066 0.643275 -2.70598
rclavicle 2.74571e-015 9.93923e-015
rhumerus 25.8094 -2.61841 -40.2731
rradius 70.2678
rwrist 1.80224
rhand 12.9408 -2.2308
rfingers 7.12502
rthumb 37.9099 -28.0545
lclavicle 2.74571e-015 9.93923e-015
lhumerus 19.5645 9.03393 54.0557
lradius 70.676
lwrist -13.9536
lhand 13.7271 -2.25998
lfingers 7.12502
lthumb 38.6521 23.3588
rfemur -13.7542 -9.3664 15.2545
rtibia 59.5979
rfoot -27.4158 -16.7402
rtoes -12.3729
lfemur -13.1007 11.0121 -12.0602
ltibia 56.4032
lfoot -25.2158 13.9351
ltoes -13.3687
125
root 1.29898 16.4893 4.18886 -6.93432 0.221724 -1.0194
lowerback 8.75797 0.167952 -0.759439
upperback 2.29048 0.223488 2.22165
thorax -2.54769 0.115203 2.70259
lowerneck -23.0328 1.64561 4.4224
upperneck 20.2021 2.39727 -6.50903
head 10.4109 0.63703 -2.69594
rclavicle -3.35449e-016 1.82882e-014
rhumerus 25.8144 -2.6263 -40.2735
rradius 70.2658
rwrist 1.83144
rhand 12.9346 -2.21694
rfingers 7.12502
rthumb 37.9041 -28.0422
lclavicle -3.35449e-016 1.82882e-014
lhumerus 19.571 9.03932 54.0439
lradius 70.6713
lwrist -13.952
lhand 13.7487 -2.23862
lfingers 7.12502
lthumb 38.6725 23.3744
rfemur -13.752 -9.36967 15.2416
rtibia 59.5937
rfoot -27.4149 -16.7348
rtoes -12.3693
lfemur -13.0978 11.0067 -12.0737
ltibia 56.3943
lfoot -25.2099 13.9388
ltoes -13.3703
126
root 1.29916 16.4896 4.18838 -6.93483 0.223036 -1.01267
lowerback 8.75951 0.166778 -0.768892
upperback 2.28994 0.221015 2.21881
thorax -2.54899 0.114023 2.70526
lowerneck -23.0398 1.63269 4.40223
upperneck 20.2186 2.38164 -6.48846
head 10.4166 0.630591 -2.6879
rclavicle -2.3233e-015 -2.0276e-014
rhumerus 25.8149 -2.63046 -40.2719
rradius 70.2646
rwrist 1.86839
rhand 12.9313 -2.19363
rfingers 7.12502
rthumb 37.901 -28.0197
lclavicle -2.3233e-015 -2.0276e-014
lhumerus 19.5739 9.04115 54.0326
lradius 70.6675
lwrist -13.9412
lhand 13.7692 -2.22049
lfingers 7.12502
lthumb 38.6919 23.3871
rfemur -13.7499 -9.37148 15.2327
rtibia 59.589
rfoot -27.4152 -16.7316
rtoes -12.3617
lfemur -13.0954 11.002 -12.0838
ltibia 56.3873
lfoot -25.2064 13.9407
ltoes -13.3692
127
root 1.2993 16.4899 4.18783 -6.93438 0.223246 -1.01212
lowerback 8.76279 0.16565 -0.772771
upperback 2.28648 0.219209 2.21798
thorax -2.5543 0.113214 2.7068
lowerneck -23.0304 1.62356 4.39561
upperneck 20.2208 2.36965 -6.48067
head 10.4148 0.62567 -2.68584
rclavicle 3.00662e-015 6.36111e-015
rhumerus 25.8121 -2.63015 -40.2687
rradius 70.2622
rwrist 1.90394
rhand 12.9325 -2.16015
rfingers 7.12502
rthumb 37.9021 -27.9859
lclavicle 3.00662e-015 6.36111e-015
lhumerus 19.5701 9.03766 54.0183
lradius 70.6648
lwrist -13.9192
lhand 13.7858 -2.20737
lfingers 7.12502
lthumb 38.7075 23.3958
rfemur -13.7486 -9.37301 15.2315
rtibia 59.5832
rfoot -27.417 -16.7288
rtoes -12.3537
lfemur -13.0951 10.9998 -12.0866
ltibia 56.3822
lfoot -25.203 13.9438
ltoes -13.3701
